<?xml version="1.0" encoding="UTF-8" standalone="no"?>
<!-- Created with Inkscape (http://www.inkscape.org/) -->

<svg
   xmlns:dc="http://purl.org/dc/elements/1.1/"
   xmlns:cc="http://creativecommons.org/ns#"
   xmlns:rdf="http://www.w3.org/1999/02/22-rdf-syntax-ns#"
   xmlns:svg="http://www.w3.org/2000/svg"
   xmlns="http://www.w3.org/2000/svg"
   xmlns:sodipodi="http://sodipodi.sourceforge.net/DTD/sodipodi-0.dtd"
   xmlns:inkscape="http://www.inkscape.org/namespaces/inkscape"
   width="64px"
   height="64px"
   id="svg3047"
   version="1.1"
   inkscape:version="0.48.4 r9939"
   sodipodi:docname="prev.svg">
  <defs
     id="defs3049" />
  <sodipodi:namedview
     id="base"
     pagecolor="#ffffff"
     bordercolor="#666666"
     borderopacity="1.0"
     inkscape:pageopacity="0.0"
     inkscape:pageshadow="2"
     inkscape:zoom="5.5"
     inkscape:cx="26.593857"
     inkscape:cy="32"
     inkscape:current-layer="layer1"
     showgrid="true"
     inkscape:document-units="px"
     inkscape:grid-bbox="true"
     inkscape:window-width="1280"
     inkscape:window-height="958"
     inkscape:window-x="0"
     inkscape:window-y="27"
     inkscape:window-maximized="1" />
  <metadata
     id="metadata3052">
    <rdf:RDF>
      <cc:Work
         rdf:about="">
        <dc:format>image/svg+xml</dc:format>
        <dc:type
           rdf:resource="http://purl.org/dc/dcmitype/StillImage" />
        <dc:title></dc:title>
      </cc:Work>
    </rdf:RDF>
  </metadata>
  <g
     id="layer1"
     inkscape:label="Layer 1"
     inkscape:groupmode="layer">
    <path
       transform="matrix(-0.25,0,0,-0.25,110.80357,150.42983)"
       sodipodi:type="arc"
       id="path3003"
       style="fill:#000000;stroke:none"
       sodipodi:cx="454.28571"
       sodipodi:cy="275.21933"
       sodipodi:rx="1.5"
       sodipodi:ry="1.5"
       d="m 455.78571,275.21933 a 1.5,1.5 0 1 1 -3,0 1.5,1.5 0 1 1 3,0 z" />
    <path
       transform="matrix(-0.25,0,0,-0.25,110.80357,150.42983)"
       sodipodi:type="arc"
       id="path3005"
       style="fill:#000000;stroke:none"
       sodipodi:cx="457.14285"
       sodipodi:cy="483.79074"
       sodipodi:rx="1.5"
       sodipodi:ry="1.5"
       d="m 458.64285,483.79074 a 1.5,1.5 0 1 1 -3,0 1.5,1.5 0 1 1 3,0 z" />
    <path
       transform="matrix(-0.25,0,0,-0.25,110.80357,150.42983)"
       sodipodi:type="arc"
       id="path3007"
       style="fill:#000000;stroke:none"
       sodipodi:cx="451.42856"
       sodipodi:cy="526.64789"
       sodipodi:rx="1.5"
       sodipodi:ry="1.5"
       d="m 452.92856,526.64789 a 1.5,1.5 0 1 1 -3,0 1.5,1.5 0 1 1 3,0 z" />
    <path
       transform="matrix(-0.25,0,0,-0.25,110.80357,150.42983)"
       sodipodi:type="arc"
       id="path3009"
       style="fill:#000000;stroke:none"
       sodipodi:cx="465.71429"
       sodipodi:cy="363.79074"
       sodipodi:rx="1.5"
       sodipodi:ry="1.5"
       d="m 467.21429,363.79074 a 1.5,1.5 0 1 1 -3,0 1.5,1.5 0 1 1 3,0 z" />
    <path
       style="fill:#000000;stroke:#000000;stroke-width:0.25px;stroke-linecap:butt;stroke-linejoin:miter;stroke-opacity:1"
       d="m 4.9643241,61.75003 0,-59.28571 30.7142889,30.71428 z"
       id="path3011"
       inkscape:connector-curvature="0" />
    <path
       style="fill:#000000;stroke:#000000;stroke-width:0.25px;stroke-linecap:butt;stroke-linejoin:miter;stroke-opacity:1"
       d="m 29.964328,61.75003 0,-59.28571 30.714285,30.71428 z"
       id="path3011-9"
       inkscape:connector-curvature="0" />
  </g>
</svg>
