<?xml version="1.0" encoding="UTF-8" standalone="no"?>
<!-- Created with Inkscape (http://www.inkscape.org/) -->

<svg
   xmlns:dc="http://purl.org/dc/elements/1.1/"
   xmlns:cc="http://creativecommons.org/ns#"
   xmlns:rdf="http://www.w3.org/1999/02/22-rdf-syntax-ns#"
   xmlns:svg="http://www.w3.org/2000/svg"
   xmlns="http://www.w3.org/2000/svg"
   xmlns:xlink="http://www.w3.org/1999/xlink"
   xmlns:sodipodi="http://sodipodi.sourceforge.net/DTD/sodipodi-0.dtd"
   xmlns:inkscape="http://www.inkscape.org/namespaces/inkscape"
   width="640px"
   height="480px"
   id="svg3201"
   version="1.1"
   inkscape:version="0.48.4 r9939"
   sodipodi:docname="demo.svg">
  <defs
     id="defs3203">
    <path
       id="cv_element"
       d="M -69.6503905 120.638015113  A 139.300781 139.300781 120 1 1 +69.6503905 120.638015113  L 27.7089845 47.9933689801  A 55.417969 55.417969 120 1 0 -27.7089845 47.9933689801  L -69.6503905 120.638015113  Z" />
  </defs>
  <sodipodi:namedview
     id="base"
     pagecolor="#ffffff"
     bordercolor="#666666"
     borderopacity="1.0"
     inkscape:pageopacity="0.0"
     inkscape:pageshadow="2"
     inkscape:zoom="0.90509668"
     inkscape:cx="666.67047"
     inkscape:cy="238.28197"
     inkscape:current-layer="layer2"
     inkscape:document-units="px"
     showgrid="false"
     inkscape:window-width="1440"
     inkscape:window-height="845"
     inkscape:window-x="0"
     inkscape:window-y="27"
     inkscape:window-maximized="1" />
  <metadata
     id="metadata3206">
    <rdf:RDF>
      <cc:Work
         rdf:about="">
        <dc:format>image/svg+xml</dc:format>
        <dc:type
           rdf:resource="http://purl.org/dc/dcmitype/StillImage" />
        <dc:title />
      </cc:Work>
    </rdf:RDF>
  </metadata>
  <g
     inkscape:groupmode="layer"
     id="layer2"
     inkscape:label="Warstwa">
    <rect
       style="fill:#ffffff;stroke:#000000;stroke-width:1.22895443"
       id="rect4204"
       width="615.47321"
       height="282.45193"
       x="13.022278"
       y="10.270506" />
    <flowRoot
       xml:space="preserve"
       id="flowRoot4210"
       style="fill:black;stroke:none;stroke-opacity:1;stroke-width:1px;stroke-linejoin:miter;stroke-linecap:butt;fill-opacity:1;font-family:Sans;font-style:normal;font-weight:normal;font-size:40px;line-height:125%;letter-spacing:0px;word-spacing:0px"><flowRegion
         id="flowRegion4212"><rect
           id="rect4214"
           width="171.67377"
           height="132.95035"
           x="98.099289"
           y="118.58156" /></flowRegion><flowPara
         id="flowPara4216" /></flowRoot>    <rect
       style="fill:#ffffff;stroke:#000000;stroke-width:1.13781118"
       id="rect4218"
       width="153.46503"
       height="175.40829"
       x="28.466068"
       y="86.380959" />
    <g
       id="g3045">
      <rect
         y="71.840233"
         x="384.72974"
         height="188.64993"
         width="228.31366"
         id="rect4220"
         style="fill:#ffffff;stroke:#000000;stroke-width:1.15441918" />
    </g>
    <rect
       style="fill:#ffffff;stroke:#000000"
       id="rect4224"
       width="219.43263"
       height="92.936172"
       x="29.687943"
       y="370.28369" />
    <rect
       style="fill:#ffffff;stroke:#000000"
       id="rect4227"
       width="289.13474"
       height="91.645378"
       x="339.47519"
       y="374.15601" />
    <path
       style="fill:none;stroke:#000000;stroke-width:1.04979527px;stroke-linecap:butt;stroke-linejoin:miter;stroke-opacity:1"
       d="m 471.13428,290.28022 0,79.77784 16.75572,-18.51986 -18.68907,20.65676 -15.46681,-17.09525"
       id="path4229"
       inkscape:connector-curvature="0" />
    <path
       style="fill:none;stroke:#000000;stroke-width:1px;stroke-linecap:butt;stroke-linejoin:miter;stroke-opacity:1"
       d="m 92.936171,290.25532 0,80.02837 25.170209,-25.17022 -25.170209,25.17022 -20.652483,-20.65249"
       id="path4231"
       inkscape:connector-curvature="0" />
    <path
       style="fill:none;stroke:#000000;stroke-width:1px;stroke-linecap:butt;stroke-linejoin:miter;stroke-opacity:1"
       d="m 223.30497,368.99291 0,-74.86525 32.2695,32.2695"
       id="path4233"
       inkscape:connector-curvature="0" />
    <path
       style="fill:none;stroke:#000000;stroke-width:1px;stroke-linecap:butt;stroke-linejoin:miter;stroke-opacity:1"
       d="M 222.01419,294.12766 194.9078,321.23404"
       id="path4235"
       inkscape:connector-curvature="0" />
    <text
       xml:space="preserve"
       style="font-size:30px;font-style:normal;font-weight:normal;line-height:125%;letter-spacing:0px;word-spacing:0px;fill:#000000;fill-opacity:1;stroke:none;font-family:Sans"
       x="92.936165"
       y="334.14185"
       id="text4241"
       sodipodi:linespacing="125%"><tspan
         sodipodi:role="line"
         id="tspan4243"
         x="92.936165"
         y="334.14185">Obraz</tspan></text>
    <text
       xml:space="preserve"
       style="font-size:30px;font-style:normal;font-weight:normal;line-height:125%;letter-spacing:0px;word-spacing:0px;fill:#000000;fill-opacity:1;stroke:none;font-family:Sans"
       x="231.04964"
       y="361.2482"
       id="text4245"
       sodipodi:linespacing="125%"><tspan
         sodipodi:role="line"
         id="tspan4247"
         x="231.04964"
         y="361.2482">Klasa</tspan></text>
    <text
       xml:space="preserve"
       style="font-size:30px;font-style:normal;font-weight:normal;line-height:125%;letter-spacing:0px;word-spacing:0px;fill:#000000;fill-opacity:1;stroke:none;font-family:Sans"
       x="396.2695"
       y="331.56027"
       id="text4249"
       sodipodi:linespacing="125%"><tspan
         sodipodi:role="line"
         id="tspan4251"
         x="396.2695"
         y="331.56027">OSC</tspan></text>
    <text
       xml:space="preserve"
       style="font-size:30px;font-style:normal;font-weight:normal;line-height:125%;letter-spacing:0px;word-spacing:0px;fill:#000000;fill-opacity:1;stroke:none;font-family:Sans"
       x="192.32626"
       y="157.30496"
       id="text4253"
       sodipodi:linespacing="125%"><tspan
         sodipodi:role="line"
         id="tspan4255"
         x="192.32626"
         y="157.30496">Obraz, klasa</tspan></text>
    <text
       xml:space="preserve"
       style="font-size:30px;font-style:normal;font-weight:normal;line-height:125%;letter-spacing:0px;word-spacing:0px;fill:#000000;fill-opacity:1;stroke:none;font-family:Sans"
       x="187.16312"
       y="255.40425"
       id="text4257"
       sodipodi:linespacing="125%"><tspan
         sodipodi:role="line"
         id="tspan4259"
         x="187.16312"
         y="255.40425">Pozycja nuty</tspan></text>
    <path
       style="fill:none;stroke:#000000;stroke-width:2.09371758px;stroke-linecap:butt;stroke-linejoin:miter;stroke-opacity:1"
       d="m 183.4212,122.4539 199.81009,0"
       id="path4261"
       inkscape:connector-curvature="0" />
    <path
       style="fill:none;stroke:#000000;stroke-width:1px;stroke-linecap:butt;stroke-linejoin:miter;stroke-opacity:1"
       d="M 382.07092,119.87234 349.80142,87.602834"
       id="path4271"
       inkscape:connector-curvature="0" />
    <path
       style="fill:none;stroke:#000000;stroke-width:1px;stroke-linecap:butt;stroke-linejoin:miter;stroke-opacity:1"
       d="m 383.3617,122.4539 -25.8156,25.8156"
       id="path4275"
       inkscape:connector-curvature="0" />
    <path
       style="fill:none;stroke:#000000;stroke-width:1.13786554px;stroke-linecap:butt;stroke-linejoin:miter;stroke-opacity:1"
       d="m 383.21912,198.60993 -197.20421,0"
       id="path4279"
       inkscape:connector-curvature="0" />
    <path
       style="fill:none;stroke:#000000;stroke-width:1.32356966px;stroke-linecap:butt;stroke-linejoin:miter;stroke-opacity:1"
       d="m 232.17865,169.08376 -50.01687,28.24407 32.15244,31.44745"
       id="path4283"
       inkscape:connector-curvature="0" />
    <g
       id="g3048">
      <g
         transform="matrix(0.2,0,0,0.2,363.1888,152.19692)"
         id="g3699">
        <g
           id="g3687"
           transform="matrix(1.25,0,0,1.25,289.98345,-396.36197)">
          <use
             id="red-4"
             y="140"
             x="298"
             xlink:href="#cv_element"
             style="fill:#ff0101"
             width="1"
             height="1" />
          <use
             transform="matrix(-1,0,0,-1,914,830)"
             id="blue-8"
             y="415"
             x="457"
             xlink:href="#cv_element"
             style="fill:#0101ff"
             width="1"
             height="1" />
          <use
             transform="matrix(-0.5,-0.8660254,0.8660254,-0.5,-146.40054,745.47561)"
             id="green-0"
             y="415"
             x="142"
             xlink:href="#cv_element"
             style="fill:#01ff01"
             width="1"
             height="1" />
          <g
             id="opencv_text"
             style="fill-rule:evenodd">
            <path
               d="m 42.48,587.7 c 11.79,-1.06 23.71,-1.05 35.44,0.63 7.23,1.28 14.9,3.15 20.33,8.42 5.69,6.35 7.09,15.17 8.34,23.3 2.05,16.87 1.81,33.98 0,50.86 -1.21,8.24 -2.4,17.14 -7.8,23.84 -5.89,5.98 -14.59,7.68 -22.57,8.94 -11.78,1.47 -23.73,1.81 -35.56,0.63 -8.01,-0.82 -16.37,-2.23 -23.19,-6.8 -4.41,-2.8 -6.78,-7.74 -8.39,-12.53 C 5.85,675.01 5.44,664.41 5,654.01 4.95,640.27 5.21,626.39 7.89,612.87 c 1.45,-6.31 3.21,-13.25 8.54,-17.46 7.51,-5.45 17.06,-6.77 26.05,-7.71 z m 1.95,18.83 c 9.99,-0.8 20.19,-1.04 30.07,0.9 3.83,0.77 8.35,2.63 9.07,6.99 3,12.27 2.3,25.05 2.42,37.59 -0.37,8.92 -0.16,18.14 -3.15,26.68 -2.61,5.61 -9.72,6.07 -15.08,6.89 -10.75,0.61 -21.91,1.15 -32.34,-2.04 -4.81,-1.27 -6.33,-6.43 -7.07,-10.76 -2,-12.83 -1.35,-25.88 -1.1,-38.81 0.53,-7.25 0.44,-14.77 3.05,-21.66 2.99,-4.62 9.17,-5.03 14.13,-5.78 z"
               id="O"
               inkscape:connector-curvature="0"
               style="fill:#050505" />
            <path
               d="m 149.77,626.78 c 7.16,-4.55 16.05,-5.29 24.31,-4.54 7.71,0.66 16.27,3.28 20.4,10.38 4.93,8.91 5.21,19.44 5.55,29.38 -0.22,10.22 -0.41,20.89 -4.63,30.39 -2.41,5.77 -7.95,9.55 -13.88,11.04 -9.08,2.23 -19.06,2.47 -27.81,-1.15 -4.73,-1.85 -8,-5.87 -10.71,-9.99 0,15.57 0,31.14 0,46.71 l -20,0 c 0.01,-38.66 -0.02,-77.33 0.01,-115.99 6.47,-0.03 12.94,-0.03 19.4,0 -0.22,3.98 -0.44,7.95 -0.55,11.94 2.4,-2.93 4.63,-6.15 7.91,-8.17 z m 6.51,10.44 c 5.6,-0.43 11.52,-0.55 16.76,1.76 3.32,1.43 5.07,4.94 5.66,8.34 1.74,8.77 1.52,17.83 0.9,26.71 -0.62,5.36 -1.48,12.3 -7.38,14.38 -6.82,2.23 -14.6,2.37 -21.34,-0.24 -6.27,-2.64 -7,-10.23 -7.62,-16.12 -0.37,-9.04 -0.82,-18.34 1.73,-27.12 1.35,-4.98 6.53,-7.34 11.29,-7.71 z"
               id="p"
               inkscape:connector-curvature="0"
               style="fill:#050505" />
            <path
               d="m 223.96,626.93 c 9.83,-5.05 21.34,-5.23 32.13,-4.72 8.98,0.75 19.88,2.25 24.83,10.84 5.58,10.37 4.67,22.57 5.45,33.95 -18.24,0 -36.48,0 -54.71,0 0.64,5.87 -0.12,12.2 2.84,17.58 2.53,4.25 7.9,5.12 12.44,5.37 5.61,0.04 11.65,0.5 16.82,-2.11 2.96,-2.32 2.98,-6.44 3.36,-9.84 6.4,-0.01 12.8,-0.01 19.2,0 -0.24,6.68 -1.1,14.16 -6.46,18.86 -8.05,7.22 -19.57,7.97 -29.87,8.17 -9.09,-0.27 -18.69,-0.73 -26.83,-5.21 -6.59,-3.89 -8.69,-11.88 -9.85,-18.92 -1.47,-10.46 -1.84,-21.12 -0.59,-31.62 1.02,-8.29 3.25,-18.04 11.24,-22.35 z m 11.69,12.73 c 5.46,-3.32 12.22,-2.65 18.35,-2.56 3.8,0.41 8.43,0.63 10.9,3.99 2.52,4.15 2.07,9.23 2.09,13.89 -11.77,0.02 -23.53,0.05 -35.29,-0.01 0.18,-5.18 -0.23,-11.5 3.95,-15.31 z"
               id="e"
               inkscape:connector-curvature="0"
               style="fill:#050505" />
            <path
               d="m 328.96,626.88 c 6.92,-4.8 15.86,-5.47 24,-4.53 6.93,0.73 14.27,3.37 18.36,9.35 3.63,4.96 4.64,11.28 4.69,17.29 -0.03,18.34 0.01,36.67 -0.01,55.01 -6.34,0.01 -12.67,0.01 -18.99,0 -0.03,-17.35 0.02,-34.69 -0.03,-52.03 -0.19,-3.79 -0.04,-8.17 -2.89,-11.09 -3.04,-3.29 -7.81,-3.93 -12.06,-3.9 -5.14,-0.03 -10.7,0.85 -14.66,4.4 -3.87,3.3 -5.34,8.62 -5.36,13.54 -0.03,16.36 0.01,32.72 -0.02,49.07 -6.33,0.02 -12.66,0.02 -18.98,0.01 -0.01,-27 -0.01,-54 0,-81 6.22,-0.02 12.45,-0.01 18.67,0 -0.03,4.74 -0.5,9.45 -0.64,14.19 2.04,-3.83 4.18,-7.87 7.92,-10.31 z"
               id="n"
               inkscape:connector-curvature="0"
               style="fill:#050505" />
            <path
               d="m 410.39,591.4 c 10.48,-3.52 21.65,-4.02 32.61,-4.41 10.62,0.05 21.72,0.15 31.64,4.43 5.04,2.1 8.53,6.7 10.23,11.78 2.77,7.59 2.85,15.81 2.91,23.8 -7.31,0 -14.62,0.02 -21.92,-0.01 -0.12,-5.62 0.31,-11.92 -3.17,-16.7 -3.52,-3.6 -9.02,-3.59 -13.69,-4.14 -9.5,-0.18 -19.39,-0.79 -28.49,2.49 -3.28,1.04 -4.98,4.32 -5.64,7.48 -1.87,8.48 -1.88,17.23 -1.87,25.88 0.11,11.56 -0.07,23.29 2.4,34.66 0.65,4.16 4.48,6.72 8.32,7.64 8.88,2.21 18.15,1.89 27.22,1.35 4.73,-0.62 10.49,-0.93 13.46,-5.27 3.17,-5.18 2.64,-11.55 2.47,-17.37 7.38,-0.03 14.75,-0.02 22.13,0 -0.09,9.19 -0.25,18.68 -3.59,27.38 -1.72,4.55 -5.27,8.41 -9.87,10.15 -9.03,3.62 -18.93,3.85 -28.51,4.43 -11.11,0.19 -22.36,-0.08 -33.22,-2.67 -6.37,-1.66 -13.33,-4.58 -16.28,-10.91 -3.77,-8.37 -4.46,-17.68 -5.43,-26.69 -0.81,-11.9 -1.33,-23.82 -1.04,-35.74 0.57,-9.65 1.45,-19.82 6.66,-28.23 2.77,-4.68 7.63,-7.61 12.67,-9.33 z"
               id="C"
               inkscape:connector-curvature="0"
               style="fill:#050505" />
            <path
               d="m 492.6,588.03 c 7.62,0.01 15.24,-0.21 22.85,0.11 7.41,23.51 15.55,46.78 23.03,70.26 2.91,9.02 4.97,18.3 7.98,27.29 3.37,-9.7 5.53,-19.78 8.83,-29.5 7.31,-22.71 14.82,-45.35 22.12,-68.06 7.52,-0.32 15.06,-0.04 22.59,-0.14 l 0,2.49 c -12.38,37.73 -24.47,75.56 -36.6,113.38 -11.32,0.23 -22.66,0.26 -33.98,-0.02 -12.06,-38.67 -24.7,-77.16 -36.82,-115.81 z"
               id="V"
               inkscape:connector-curvature="0"
               style="fill:#050505" />
          </g>
        </g>
      </g>
    </g>
    <rect
       style="fill:#ffffff"
       id="rect3062"
       width="186.7204"
       height="45.299042"
       x="402.16699"
       y="212.62524" />
    <text
       xml:space="preserve"
       style="font-size:40px;font-style:normal;font-weight:normal;line-height:125%;letter-spacing:0px;word-spacing:0px;fill:#000000;fill-opacity:1;stroke:none;font-family:Sans"
       x="415.42523"
       y="249.08545"
       id="text3064"
       sodipodi:linespacing="125%"><tspan
         sodipodi:role="line"
         id="tspan3066"
         x="415.42523"
         y="249.08545">OpenCV</tspan></text>
  </g>
  <g
     id="layer1"
     inkscape:label="Layer 1"
     inkscape:groupmode="layer">
    <path
       d="m 375.66211,417.4919 v 25.0416 h 0.9744 v -14.176 c 0,-1.3976 0.1784,-2.7284 0.536,-3.9956 0.3896,-1.2664 0.9252,-2.3716 1.6072,-3.3128 0.7148,-0.9748 1.5752,-1.7376 2.5828,-2.2904 1.0064,-0.5848 2.1268,-0.8768 3.3616,-0.8768 1.396,0 2.5336,0.2272 3.41,0.6824 0.8776,0.454 1.5592,1.072 2.0472,1.8508 0.4864,0.78 0.8112,1.6888 0.9736,2.7284 0.1956,1.0396 0.2928,2.1436 0.2928,3.3136 v 16.0764 h 0.974 v -15.8812 c 0,-1.1696 0.1788,-2.2744 0.536,-3.3132 0.3572,-1.0712 0.8772,-2.014 1.5588,-2.8256 0.6824,-0.8116 1.5104,-1.4452 2.4852,-1.9 0.974,-0.4872 2.062,-0.7308 3.2644,-0.7308 1.364,0 2.4844,0.1944 3.3612,0.5848 0.9096,0.3896 1.624,0.942 2.1436,1.6564 0.552,0.7144 0.9256,1.5752 1.1212,2.5816 0.2264,1.0076 0.34,2.1276 0.34,3.3616 l 0.032,9.2068 c 0.008,0 0.9536,-0.028 0.9536,-0.028 l -0.012,-9.18 c 0,-1.364 -0.1304,-2.598 -0.3896,-3.702 -0.26,-1.1376 -0.6988,-2.0948 -1.316,-2.8752 -0.6168,-0.8112 -1.4288,-1.4452 -2.436,-1.9 -1.0068,-0.4548 -2.2732,-0.6816 -3.7996,-0.6816 -1.9496,0 -3.6384,0.5352 -5.0672,1.6076 -1.4288,1.072 -2.3872,2.4852 -2.8748,4.2388 h -0.0972 c -0.4228,-1.8508 -1.2988,-3.2972 -2.6312,-4.3364 -1.2988,-1.072 -2.9228,-1.5752 -4.8716,-1.5096 -0.9748,0 -1.9,0.178 -2.7772,0.5352 -0.8444,0.3252 -1.6236,0.796 -2.3388,1.4132 -0.7148,0.6172 -1.3152,1.3316 -1.802,2.144 -0.4876,0.8116 -0.8444,1.7044 -1.072,2.6788 h -0.0976 v -6.1852 h -0.9736"
       id="path3131"
       inkscape:connector-curvature="0" />
    <path
       d="m 426.07291,442.5323 v -25.0404 h -0.9748 v 14.1772 c 0,1.3968 -0.1944,2.728 -0.584,3.9948 -0.3892,1.2672 -0.9748,2.3872 -1.754,3.3616 -0.7468,0.942 -1.6892,1.7056 -2.826,2.29 -1.1368,0.5524 -2.452,0.828 -3.946,0.828 -1.072,0 -2.0948,-0.1456 -3.0696,-0.4388 -0.9416,-0.3252 -1.7864,-0.8116 -2.5336,-1.4616 -0.7144,-0.6816 -1.2824,-1.526 -1.7048,-2.5332 -0.4224,-1.0396 -0.4616,-2.3244 -0.4616,-3.7856 l -0.9544,0.1484 c 0,0.3876 0,0.8276 10e-4,1.2012 0.0544,1.002 0.13,1.8932 0.44,2.7284 0.4552,1.104 1.0724,2.046 1.8512,2.8256 0.8124,0.7472 1.7544,1.3152 2.8256,1.7048 1.1048,0.3572 2.306,0.5352 3.6056,0.5352 2.4688,0 4.4664,-0.6324 5.9924,-1.8992 1.5588,-1.266 2.5664,-2.874 3.0204,-4.8236 h 0.0972 v 6.1876 h 0.966"
       id="path3133"
       inkscape:connector-curvature="0" />
    <path
       d="m 447.75291,424.8967 h 0.974 c 0,-2.7932 -0.8116,-4.8232 -2.436,-6.09 -1.624,-1.266 -3.8324,-1.8996 -6.6252,-1.8996 -1.5596,0 -2.8748,0.1948 -3.9468,0.5844 -1.072,0.3896 -1.9484,0.8928 -2.6308,1.5104 -0.6816,0.6168 -1.1692,1.2988 -1.4616,2.046 -0.292,0.7468 -0.4384,1.4612 -0.4384,2.1436 0,1.364 0.2436,2.452 0.7308,3.2644 0.4876,0.8116 1.25,1.4448 2.2904,1.9004 0.7144,0.324 1.526,0.6164 2.4356,0.8756 0.91,0.2604 1.9652,0.5364 3.1668,0.8284 1.072,0.2596 2.1276,0.5196 3.1668,0.7796 1.0396,0.2596 1.9484,0.6168 2.728,1.072 0.812,0.4224 1.462,0.9744 1.9488,1.6568 0.5204,0.6816 0.7796,1.5752 0.7796,2.6788 0,1.072 -0.2592,1.9812 -0.7796,2.7284 -0.4868,0.7468 -1.1204,1.364 -1.8992,1.8516 -0.7804,0.4544 -1.6572,0.7956 -2.6312,1.0232 -0.942,0.1944 -1.8684,0.292 -2.7776,0.292 -2.9556,0 -5.2288,-0.65 -6.8208,-1.9484 -1.5588,-1.332 -2.3388,-3.4104 -2.3388,-6.2368 h -0.974 c 0,3.1504 0.8444,5.4572 2.5328,6.9184 1.7216,1.4616 4.2548,2.1916 7.6004,2.1916 1.072,0 2.1436,-0.1292 3.2152,-0.3896 1.1048,-0.2264 2.0796,-0.6164 2.924,-1.1688 0.876,-0.5512 1.5748,-1.2668 2.0948,-2.1428 0.5516,-0.8768 0.828,-1.9496 0.828,-3.2156 0,-1.202 -0.244,-2.1764 -0.7308,-2.9236 -0.4552,-0.7472 -1.072,-1.364 -1.852,-1.8508 -0.7472,-0.4884 -1.6076,-0.8608 -2.582,-1.1216 -0.942,-0.2916 -1.9,-0.5676 -2.8748,-0.828 -1.364,-0.3568 -2.566,-0.6652 -3.6052,-0.9252 -1.0072,-0.2592 -1.9488,-0.568 -2.8252,-0.9256 -0.8444,-0.3576 -1.5268,-0.8604 -2.0468,-1.5104 -0.4868,-0.6816 -0.7312,-1.6396 -0.7312,-2.874 0,-0.2272 0.0648,-0.6336 0.1948,-1.2188 0.1304,-0.584 0.4388,-1.1692 0.9256,-1.7532 0.4876,-0.6172 1.2344,-1.1532 2.2412,-1.608 1.0068,-0.4872 2.3868,-0.7308 4.1416,-0.7308 1.2016,0 2.2896,0.13 3.2636,0.39 1.0076,0.2596 1.8684,0.6816 2.5828,1.2668 0.7144,0.552 1.2668,1.2664 1.6564,2.1436 0.388,0.8724 0.584,1.9444 0.584,3.2104"
       id="path3135"
       inkscape:connector-curvature="0" />
    <path
       d="m 474.12491,429.2327 h -19.9744 c 0.0976,-1.7532 0.4224,-3.3288 0.974,-4.7256 0.5524,-1.3964 1.2668,-2.5816 2.1444,-3.5564 0.9088,-1.0068 1.948,-1.77 3.1176,-2.2896 1.202,-0.52 2.4852,-0.78 3.8496,-0.78 1.6236,0 3.0524,0.3084 4.2868,0.9252 1.2344,0.5852 2.2576,1.3972 3.0696,2.436 0.844,1.0396 1.4772,2.2576 1.8996,3.654 0.428,1.3644 0.64,2.8108 0.64,4.3364 m -20.188,0.9748 h 20.9496 c 0.0648,-1.7216 -0.114,-3.378 -0.5364,-4.9696 -0.3892,-1.5916 -1.0392,-3.0044 -1.9484,-4.238 -0.8772,-1.2352 -2.0304,-2.2252 -3.4592,-2.9724 -1.3968,-0.7472 -3.0692,-1.12 -5.018,-1.12 -1.3968,0 -2.7608,0.292 -4.0928,0.8764 -1.3316,0.5848 -2.5008,1.4452 -3.5076,2.5828 -1.0076,1.1036 -1.8192,2.4676 -2.436,4.092 -0.6168,1.624 -0.9256,3.4756 -0.9256,5.554 0,1.8516 0.2112,3.5896 0.6332,5.2132 0.4224,1.5916 1.072,2.9884 1.9488,4.19 0.8772,1.1692 1.9972,2.078 3.3616,2.728 1.3968,0.6492 3.0696,0.9576 5.0184,0.9248 2.858,0 5.2612,-0.7944 7.2104,-2.3864 1.9488,-1.6236 3.1012,-3.8972 3.4592,-6.8208 h -0.9748 c -0.422,2.7608 -1.5096,4.8396 -3.2644,6.2368 -1.7208,1.364 -3.8976,2.0456 -6.528,2.0456 -1.7864,0 -3.2964,-0.3084 -4.5308,-0.9252 -1.2344,-0.6172 -2.2412,-1.4616 -3.0212,-2.534 -0.7792,-1.0716 -1.364,-2.3224 -1.7536,-3.7512 -0.356,-1.456 -0.552,-3.032 -0.584,-4.7208 z"
       id="path3137"
       inkscape:connector-curvature="0" />
    <path
       d="m 496.48891,424.8967 h 0.9736 c 0,-2.7932 -0.8116,-4.8232 -2.436,-6.09 -1.6236,-1.266 -3.832,-1.8996 -6.6252,-1.8996 -1.5596,0 -2.8752,0.1948 -3.9468,0.5844 -1.072,0.3896 -1.9484,0.8928 -2.6308,1.5104 -0.6816,0.6168 -1.1692,1.2988 -1.4616,2.046 -0.292,0.7468 -0.4384,1.4612 -0.4384,2.1436 0,1.364 0.2436,2.452 0.7308,3.2644 0.4876,0.8116 1.25,1.4448 2.29,1.9004 0.7148,0.324 1.5264,0.6164 2.436,0.8756 0.9092,0.2604 1.9652,0.5364 3.1668,0.8284 1.072,0.2596 2.1272,0.5196 3.1668,0.7796 1.0392,0.2596 1.9484,0.6168 2.728,1.072 0.812,0.4224 1.4616,0.9744 1.9484,1.6568 0.5208,0.6816 0.78,1.5752 0.78,2.6788 0,1.072 -0.2592,1.9812 -0.78,2.7284 -0.4868,0.7468 -1.1204,1.364 -1.8992,1.8516 -0.78,0.4544 -1.6572,0.7956 -2.6304,1.0232 -0.9424,0.1944 -1.8688,0.292 -2.7776,0.292 -2.956,0 -5.2292,-0.65 -6.8212,-1.9484 -1.5588,-1.332 -2.3384,-3.4104 -2.3384,-6.2368 h -0.974 c 0,3.1504 0.8444,5.4572 2.5332,6.9184 1.7216,1.4616 4.2552,2.1916 7.6004,2.1916 1.072,0 2.1436,-0.1292 3.2152,-0.3896 1.1048,-0.2264 2.0788,-0.6164 2.924,-1.1688 0.876,-0.5512 1.5752,-1.2668 2.0948,-2.1428 0.5516,-0.8768 0.8276,-1.9496 0.8276,-3.2156 0,-1.202 -0.2432,-2.1764 -0.7308,-2.9236 -0.4548,-0.7472 -1.0716,-1.364 -1.8512,-1.8508 -0.7472,-0.4884 -1.6076,-0.8608 -2.582,-1.1216 -0.942,-0.2916 -1.9004,-0.5676 -2.8748,-0.828 -1.3644,-0.3568 -2.5656,-0.6652 -3.6052,-0.9252 -1.0076,-0.2592 -1.9488,-0.568 -2.8252,-0.9256 -0.8444,-0.3576 -1.5272,-0.8604 -2.0468,-1.5104 -0.4868,-0.6816 -0.7308,-1.6396 -0.7308,-2.874 0,-0.2272 0.0648,-0.6336 0.1948,-1.2188 0.1304,-0.584 0.4384,-1.1692 0.9256,-1.7532 0.4876,-0.6172 1.2344,-1.1532 2.2412,-1.608 1.0068,-0.4872 2.3872,-0.7308 4.1416,-0.7308 1.2012,0 2.2896,0.13 3.2632,0.39 1.0076,0.2596 1.8684,0.6816 2.5824,1.2668 0.7148,0.552 1.2672,1.2664 1.6568,2.1436 0.388,0.8724 0.584,1.9444 0.584,3.2104"
       id="path3139"
       inkscape:connector-curvature="0" />
    <path
       d="m 523.51291,434.0083 h -0.9748 c -0.098,1.2664 -0.4064,2.4028 -0.926,3.4092 -0.5196,0.9752 -1.202,1.8196 -2.046,2.534 -0.812,0.7144 -1.754,1.2668 -2.8256,1.6564 -1.0716,0.3576 -2.2248,0.536 -3.4592,0.536 -1.6564,0 -3.1176,-0.3084 -4.3844,-0.9252 -1.2664,-0.65 -2.3228,-1.5108 -3.1668,-2.5816 -0.8448,-1.0724 -1.4944,-2.3068 -1.9484,-3.7036 -0.4224,-1.3964 -0.6336,-2.858 -0.6336,-4.3844 0,-1.4616 0.1788,-2.9396 0.5364,-4.4336 0.3896,-1.5272 0.9904,-2.8912 1.8028,-4.0924 0.8444,-1.234 1.9484,-2.2252 3.3124,-2.972 1.3968,-0.7792 3.086,-1.1692 5.0668,-1.1692 1.0396,0 2.0296,0.146 2.972,0.4384 0.9416,0.292 1.786,0.7472 2.5328,1.364 0.7476,0.5852 1.3808,1.3316 1.9004,2.2416 0.5196,0.876 0.8776,1.932 1.072,3.1668 h 0.9752 c -0.1628,-1.332 -0.5364,-2.5016 -1.1212,-3.508 -0.5516,-1.0396 -1.2508,-1.9 -2.0948,-2.582 -0.8448,-0.6824 -1.802,-1.202 -2.8744,-1.5596 -1.072,-0.3572 -2.192,-0.5352 -3.3616,-0.5352 -1.9808,0 -3.7192,0.3732 -5.2132,1.12 -1.4616,0.7476 -2.6792,1.7536 -3.6536,3.0208 -0.942,1.234 -1.6568,2.6796 -2.1436,4.336 -0.4548,1.624 -0.6824,3.3456 -0.6824,5.1644 0,1.7208 0.244,3.3452 0.7312,4.8716 0.4872,1.4944 1.202,2.8092 2.1436,3.9468 0.9416,1.1368 2.0948,2.0456 3.4588,2.7284 1.3956,0.6476 2.9876,0.9728 4.774,0.9728 1.43,0 2.7284,-0.2108 3.898,-0.6324 1.202,-0.4224 2.2412,-1.0232 3.1184,-1.802 0.9092,-0.7796 1.6404,-1.722 2.1924,-2.8252 0.552,-1.144 0.892,-2.412 1.024,-3.808"
       id="path3141"
       inkscape:connector-curvature="0" />
    <path
       d="m 526.54891,430.0123 c 0,1.7216 0.2428,3.3784 0.7304,4.9692 0.4872,1.5596 1.2016,2.9396 2.1432,4.1416 0.9752,1.2024 2.16,2.1596 3.5568,2.8752 1.3968,0.7136 3.0048,1.0704 4.8232,1.0704 1.8516,0 3.4752,-0.3568 4.8724,-1.0704 1.3964,-0.7152 2.5656,-1.6728 3.5084,-2.8752 0.974,-1.202 1.7048,-2.5816 2.192,-4.1416 0.4872,-1.5908 0.7304,-3.2476 0.7304,-4.9692 0,-1.7216 -0.2432,-3.3612 -0.7304,-4.9204 -0.4876,-1.5916 -1.2184,-2.9888 -2.192,-4.1896 -0.9424,-1.202 -2.1116,-2.1604 -3.5084,-2.8752 -1.3968,-0.7472 -3.0044,-1.12 -4.8236,-1.12 -1.852,0 -3.4752,0.3732 -4.872,1.12 -1.3964,0.7148 -2.5816,1.6728 -3.5568,2.8752 -0.9416,1.2008 -1.6564,2.598 -2.1432,4.1896 -0.492,1.5604 -0.732,3.2004 -0.732,4.9216 m 0.972,0 c 0,-1.5584 0.2112,-3.0696 0.6336,-4.5308 0.4552,-1.4612 1.1212,-2.744 1.9976,-3.8484 0.8772,-1.1376 1.9492,-2.0464 3.216,-2.7284 1.2988,-0.6824 2.7924,-1.0236 4.4816,-1.0236 1.6568,0 3.118,0.3412 4.3848,1.0236 1.2996,0.682 2.3872,1.5908 3.2644,2.7284 0.8772,1.1044 1.526,2.3872 1.948,3.8484 0.4556,1.4612 0.6824,2.9724 0.6824,4.5308 0,1.5916 -0.2268,3.1184 -0.6824,4.58 -0.422,1.4612 -1.0708,2.7604 -1.948,3.8976 -0.8772,1.1036 -1.9648,1.9972 -3.2644,2.6788 -1.2668,0.6496 -2.728,0.9748 -4.3848,0.9748 -1.6892,0 -3.1828,-0.3252 -4.4816,-0.9748 -1.2668,-0.6816 -2.3388,-1.5752 -3.216,-2.6788 -0.8764,-1.1372 -1.5424,-2.4364 -1.9976,-3.8976 -0.42,-1.46 -0.632,-2.988 -0.632,-4.58 z"
       id="path3143"
       inkscape:connector-curvature="0" />
    <path
       d="m 553.89691,442.5323 v -14.1748 c 0,-1.364 0.1944,-2.6964 0.5844,-3.9952 0.3892,-1.2996 0.9912,-2.436 1.8028,-3.4108 0.8112,-1.0064 1.8344,-1.7864 3.0692,-2.3388 1.2668,-0.584 2.7604,-0.828 4.4824,-0.7308 v -0.974 c -1.494,-0.032 -2.8092,0.1296 -3.946,0.4872 -1.1052,0.3576 -2.0632,0.8444 -2.8752,1.4616 -0.812,0.6172 -1.4616,1.3476 -1.9484,2.192 -0.4872,0.812 -0.844,1.6892 -1.072,2.6312 h -0.0972 v -6.1876 h -0.9748 v 25.0416 h 0.9748"
       id="path3145"
       inkscape:connector-curvature="0" />
    <path
       d="m 586.26891,429.2327 h -19.9748 c 0.0972,-1.7532 0.422,-3.3288 0.974,-4.7256 0.5524,-1.3964 1.2664,-2.5816 2.1436,-3.5564 0.9092,-1.0068 1.9488,-1.77 3.118,-2.2896 1.202,-0.52 2.4856,-0.78 3.8496,-0.78 1.6232,0 3.0524,0.3084 4.2868,0.9252 1.2344,0.5852 2.2572,1.3972 3.0696,2.436 0.844,1.0396 1.4772,2.2576 1.8992,3.654 0.424,1.3644 0.636,2.8108 0.636,4.3364 m -19.972,0.9748 h 20.9488 c 0.0648,-1.7216 -0.1136,-3.378 -0.536,-4.9696 -0.3896,-1.5916 -1.0392,-3.0044 -1.9484,-4.238 -0.8768,-1.2352 -2.0304,-2.2252 -3.4588,-2.9724 -1.3968,-0.7472 -3.0696,-1.12 -5.0184,-1.12 -1.3964,0 -2.7604,0.292 -4.0924,0.8764 -1.3316,0.5848 -2.5008,1.4452 -3.5076,2.5828 -1.0076,1.1036 -1.8196,2.4676 -2.436,4.092 -0.6172,1.624 -0.9256,3.4756 -0.9256,5.554 0,1.8516 0.2108,3.5896 0.6332,5.2132 0.4224,1.5916 1.0724,2.9884 1.9484,4.19 0.8772,1.1692 1.9972,2.078 3.362,2.728 1.3968,0.6492 3.0696,0.9576 5.018,0.9248 2.8584,0 5.2616,-0.7944 7.2104,-2.3864 1.9484,-1.6236 3.1016,-3.8972 3.4592,-6.8208 h -0.9752 c -0.422,2.7608 -1.5092,4.8396 -3.2644,6.2368 -1.7208,1.364 -3.8972,2.0456 -6.5284,2.0456 -1.786,0 -3.2956,-0.3084 -4.53,-0.9252 -1.2344,-0.6172 -2.2416,-1.4616 -3.0212,-2.534 -0.7792,-1.0716 -1.364,-2.3224 -1.7536,-3.7512 -0.364,-1.456 -0.556,-3.032 -0.588,-4.7208 z"
       id="path3147"
       inkscape:connector-curvature="0" />
    <path
       d="m 415.16091,410.3075 c 0,-0.6164 0.4992,-1.1156 1.1156,-1.1156 0.616,0 1.1156,0.4992 1.1156,1.1156 0,0.616 -0.4996,1.1156 -1.1156,1.1156 -0.62,0 -1.116,-0.4996 -1.116,-1.1156"
       id="path3149"
       inkscape:connector-curvature="0" />
    <path
       d="m 405.34171,410.8315 h 0.9296 c 0,-6.0024 5.008,-9.1428 9.9544,-9.1428 2.5112,0 4.8252,0.7996 6.5156,2.2504 1.9064,1.6368 2.914,4.02 2.914,6.8924 h 0.9296 c 0,-3.152 -1.1196,-5.7792 -3.2384,-7.598 -1.8588,-1.5956 -4.388,-2.4748 -7.1208,-2.4748 -5.408,0 -10.8832,3.4596 -10.8832,10.0728 z"
       id="path3151"
       inkscape:connector-curvature="0" />
    <text
       xml:space="preserve"
       style="font-size:40px;font-style:normal;font-weight:normal;line-height:125%;letter-spacing:0px;word-spacing:0px;fill:#000000;fill-opacity:1;stroke:none;font-family:Sans"
       x="50.340424"
       y="445.14893"
       id="text3236"
       sodipodi:linespacing="125%"><tspan
         sodipodi:role="line"
         id="tspan3238"
         x="50.340424"
         y="445.14893">Gamera</tspan></text>
    <g
       transform="matrix(0.5,0,0,0.5,33.30672,132.62303)"
       id="layer1-9">
      <g
         transform="translate(432,-133)"
         id="g2396">
        <path
           inkscape:connector-curvature="0"
           d="m -378.33328,299.25358 -7.26184,-6.67711 0.0118,-84.71249 c 0.0117,-83.62609 0.0388,-84.78455 2.11435,-90.33196 4.43707,-11.85913 11.10713,-15.89306 27.89749,-16.87189 10.06981,-0.58704 13.18358,-0.16957 76,10.18948 l 65.5,10.8016 0,69.96263 c 0,53.90228 -0.29319,70.92859 -1.27722,74.17058 -1.56788,5.16554 -6.72925,12.10273 -10.73743,14.43174 -1.98699,1.15457 -26.06029,5.60398 -71.98535,13.30489 -37.95,6.36361 -69.9,11.75908 -71,11.98992 -1.4051,0.29487 -4.16003,-1.56638 -9.26184,-6.25739 z m 91.38684,-23.17711 c 2.25641,0 2.375,-0.32456 2.375,-6.5 0,-5.78113 -0.21599,-6.5 -1.95295,-6.5 -3.70388,0 -6.85214,-2.24136 -8.60347,-6.12513 -0.96609,-2.14239 -1.57361,-4.03559 -1.35005,-4.2071 0.22356,-0.17151 2.53288,-1.52939 5.13182,-3.01751 12.90306,-7.38812 18.68728,-23.96169 18.72409,-53.65026 0.0443,-35.70973 -8.94704,-52.63835 -30.26591,-56.98381 -6.70354,-1.3664 -14.30708,-0.63312 -20.27292,1.95511 -8.91148,3.86617 -15.69871,14.21474 -19.03883,29.0287 -2.37545,10.5355 -2.34662,39.37509 0.0505,50.5 3.51644,16.31976 11.81536,28.41254 21.77764,31.7333 3.68933,1.22977 4.20364,1.83831 5.7544,6.80859 2.41185,7.73016 4.56676,11.48088 8.00116,13.92639 3.43513,2.44602 10.23575,4.07656 14.41955,3.45728 1.58125,-0.23406 3.94375,-0.42556 5.25,-0.42556 z m -22.60906,-37.30473 c -3.04896,-1.52007 -6.70937,-6.83665 -7.98395,-11.59631 -4.16759,-15.56307 -3.81851,-54.0943 0.58989,-65.11198 2.00113,-5.00129 6.62237,-8.98698 10.42005,-8.98698 4.20244,0 9.48751,5.06719 11.45111,10.97905 3.47238,10.45434 4.05746,45.54877 1.00529,60.29934 -2.42686,11.72859 -8.85965,17.71867 -15.48239,14.41688 z m 66.98406,7.25641 c 9.46242,-2.10155 10,-2.56605 10,-8.64039 0,-4.71812 -0.23391,-5.37657 -1.75,-4.92617 -5.99778,1.78186 -7.39498,1.79365 -9.29029,0.0784 -1.84998,-1.6742 -1.95971,-3.22064 -1.95971,-27.61852 l 0,-25.84501 6,0 6,0 0,-5.87083 0,-5.87084 -6,-0.67882 -6,-0.67882 0,-9.39133 c 0,-5.16523 -0.3375,-9.59681 -0.75,-9.84796 -0.4125,-0.25114 -2.9657,-0.6152 -5.67377,-0.80901 l -4.92378,-0.35239 -1.71558,7 c -0.94357,3.85 -1.99895,8.2375 -2.34528,9.75 -0.53873,2.35272 -1.13256,2.75 -4.11064,2.75 l -3.48095,0 0,6.5 0,6.5 3,0 3,0 0,29.03984 c 0,35.48318 0.3987,36.84529 11.5,39.28807 3.19245,0.70248 3.75518,0.67757 8.5,-0.37623 z"
           id="path2400"
           style="fill:#7cc040" />
        <path
           inkscape:connector-curvature="0"
           d="m -378.85274,298.29747 -5.7187,-5.77899 0,-85.35499 c 0,-61.88383 0.31913,-86.42015 1.16056,-89.22858 1.48069,-4.94212 6.97518,-11.37688 11.82873,-13.85298 2.07592,-1.05905 6.86507,-2.17885 10.64255,-2.48844 5.07942,-0.41629 6.2698,-0.30029 4.57064,0.4454 -4.94565,2.17044 -9.27463,6.48477 -11.92778,11.88743 l -2.7747,5.65015 -0.27987,92.25 c -0.15393,50.7375 -0.61802,92.25 -1.03131,92.25 -0.41328,0 -3.32484,-2.60055 -6.47012,-5.779 z m 71.06515,-22.41569 c -4.72952,-1.25739 -9.9682,-6.99399 -12.23849,-13.40172 -0.95556,-2.69697 -2.09542,-5.83025 -2.53302,-6.96284 -0.47618,-1.23245 -2.41587,-2.54468 -4.83102,-3.26828 -8.94116,-2.67884 -17.28444,-14.70117 -20.9091,-30.1292 -2.60283,-11.07867 -2.53035,-44.63455 0.1178,-54.54327 4.04993,-15.15377 11.74578,-24.97801 21.93753,-28.00463 6.56814,-1.95053 10.5804,-1.83637 4.99668,0.14217 -9.40476,3.33248 -16.3244,12.40347 -20.51453,26.89258 -2.09438,7.24219 -2.29813,9.88728 -2.23155,28.96988 0.0632,18.12683 0.36179,22.04722 2.18212,28.65411 4.10071,14.88354 10.26665,23.43542 20.10186,27.88038 4.5157,2.04084 5.29584,2.83845 6.25298,6.39301 2.27779,8.45903 6.80455,14.60181 12.68316,17.21094 2.15525,0.95658 2.29719,1.19465 0.70173,1.17699 -1.1,-0.0122 -3.67227,-0.46673 -5.71615,-1.01012 z m 47.30981,-30.11175 c -7.88148,-2.76162 -9.09366,-8.3944 -9.09366,-42.25673 0,-22.83622 -0.16216,-25.32156 -1.67124,-25.61351 -1.16362,-0.22511 -2.03969,-2.14578 -2.88427,-6.32332 -0.66716,-3.3 -1.01354,-6.3375 -0.76974,-6.75 0.24381,-0.4125 1.54173,-0.75 2.88427,-0.75 2.3555,0 2.44098,0.24513 2.44098,7 l 0,7 2.94445,0 2.94446,0 0.30554,29.25 c 0.33915,32.46628 0.5938,33.82092 7.1041,37.79048 2.49688,1.52244 2.76129,1.94044 1.20145,1.89934 -1.1,-0.029 -3.53285,-0.58981 -5.40634,-1.24626 z m -45.8338,-9.44356 c 5.64105,-5.88938 7.74014,-16.98166 7.74014,-40.90141 0,-22.89925 -2.73061,-35.94521 -8.34695,-39.87905 -2.03937,-1.42843 -2.01168,-1.46954 0.98958,-1.46954 10.23612,0 14.05235,14.15285 13.07774,48.5 -0.54192,19.09814 -1.79461,26.63129 -5.32436,32.01836 -1.6232,2.47731 -5.48286,4.48164 -8.63015,4.48164 -2.06696,0 -2.05009,-0.0939 0.494,-2.75 z m 65.24014,-4.25 c 1.1,-0.47269 3.35,-0.85943 5,-0.85943 2.55762,0 2.70508,0.12673 1,0.85943 -1.1,0.47269 -3.35,0.85943 -5,0.85943 -2.55762,0 -2.70508,-0.12673 -1,-0.85943 z m -26.20254,-69.25 c 4.3707,-19.12226 3.82937,-17.75 7.00201,-17.75 2.53638,0 2.85533,0.30004 2.35456,2.215 -0.31858,1.21824 -1.33616,5.71824 -2.26129,10 -1.63858,7.58382 -1.75864,7.785 -4.6458,7.785 -2.55924,0 -2.89356,-0.3071 -2.44948,-2.25 z"
           id="path2398"
           style="fill:#016123" />
      </g>
    </g>
    <text
       xml:space="preserve"
       style="font-size:40px;font-style:normal;font-weight:normal;line-height:125%;letter-spacing:0px;word-spacing:0px;fill:#000000;fill-opacity:1;stroke:none;font-family:Sans"
       x="227.17732"
       y="61.787235"
       id="text4206"
       sodipodi:linespacing="125%"><tspan
         sodipodi:role="line"
         id="tspan4208"
         x="227.17732"
         y="61.787235">DrawNotes</tspan></text>
    <text
       xml:space="preserve"
       style="font-size:40px;font-style:normal;font-weight:normal;line-height:125%;letter-spacing:0px;word-spacing:0px;fill:#000000;fill-opacity:1;stroke:none;font-family:Sans"
       x="415.6312"
       y="188.28369"
       id="text3040"
       sodipodi:linespacing="125%"><tspan
         sodipodi:role="line"
         id="tspan3042"
         x="415.6312"
         y="188.28369" /></text>
  </g>
</svg>
