<?xml version="1.0" encoding="UTF-8"?>
<svg version="1.1" xmlns="http://www.w3.org/2000/svg" width="570" height="150" x="0" y="0" viewBox="0 0 570 150" enable-background="new 0 0 570 150">
	<rect width="570" display="none" height="150"/>
	<path d="M20.493,64.729v62.604h2.436v-35.44c0-3.494,0.446-6.821,1.34-9.989,0.974-3.166,2.313-5.929,4.018-8.282,1.787-2.437,3.938-4.344,6.457-5.726,2.516-1.462,5.317-2.192,8.404-2.192,3.49,0,6.334,0.568,8.525,1.706,2.194,1.135,3.898,2.68,5.118,4.627,1.216,1.95,2.028,4.222,2.434,6.821,0.489,2.599,0.732,5.359,0.732,8.284v40.191h2.435v-39.703c0-2.924,0.447-5.686,1.34-8.283,0.893-2.678,2.193-5.035,3.897-7.064,1.706-2.029,3.776-3.613,6.213-4.75,2.435-1.218,5.155-1.827,8.161-1.827,3.41,0,6.211,0.486,8.403,1.462,2.274,0.974,4.06,2.355,5.359,4.141,1.38,1.786,2.314,3.938,2.803,6.454,0.566,2.519,0.85,5.319,0.85,8.404l0.082,23.017c0.02,0,2.384-0.066,2.384-0.066l-0.029-22.95c0-3.41-0.326-6.495-0.974-9.255-0.65-2.844-1.747-5.237-3.29-7.188-1.542-2.028-3.572-3.613-6.09-4.75-2.517-1.137-5.683-1.704-9.499-1.704-4.874,0-9.096,1.338-12.668,4.019-3.572,2.68-5.968,6.213-7.187,10.597h-0.243c-1.057-4.627-3.247-8.243-6.578-10.841-3.247-2.68-7.307-3.938-12.179-3.774-2.437,0-4.75,0.445-6.943,1.338-2.111,0.813-4.059,1.99-5.847,3.533-1.787,1.543-3.288,3.329-4.505,5.36-1.219,2.029-2.111,4.261-2.68,6.697h-0.244v-15.463h-2.434"/>
	<path d="M146.52,127.33v-62.601h-2.437v35.443c0,3.492-0.486,6.82-1.46,9.987-0.973,3.168-2.437,5.968-4.385,8.404-1.867,2.355-4.223,4.264-7.065,5.725-2.842,1.381-6.13,2.07-9.865,2.07-2.68,0-5.237-0.364-7.674-1.097-2.354-0.813-4.466-2.029-6.334-3.654-1.786-1.704-3.206-3.815-4.262-6.333-1.056-2.599-1.154-5.811-1.154-9.464l-2.386,0.371c0,0.969,0,2.069,0.003,3.003,0.136,2.505,0.325,4.733,1.1,6.821,1.138,2.76,2.681,5.115,4.628,7.064,2.031,1.868,4.386,3.288,7.064,4.262,2.762,0.893,5.765,1.338,9.014,1.338,6.172,0,11.166-1.581,14.981-4.748,3.897-3.165,6.416-7.185,7.551-12.059h0.243v15.469h2.415"/>
	<path d="M200.72,83.241h2.435c0-6.983-2.029-12.058-6.09-15.225-4.06-3.165-9.581-4.749-16.563-4.749-3.899,0-7.187,0.487-9.867,1.461s-4.871,2.232-6.577,3.776c-1.704,1.542-2.923,3.247-3.654,5.115-0.73,1.867-1.096,3.653-1.096,5.359,0,3.41,0.609,6.13,1.827,8.161,1.219,2.029,3.125,3.612,5.726,4.751,1.786,0.81,3.815,1.541,6.089,2.189,2.275,0.651,4.913,1.341,7.917,2.071,2.68,0.649,5.319,1.299,7.917,1.949,2.599,0.649,4.871,1.542,6.82,2.68,2.03,1.056,3.655,2.436,4.872,4.142,1.301,1.704,1.949,3.938,1.949,6.697,0,2.68-0.648,4.953-1.949,6.821-1.217,1.867-2.801,3.41-4.748,4.629-1.951,1.136-4.143,1.989-6.578,2.558-2.355,0.486-4.671,0.73-6.944,0.73-7.389,0-13.072-1.625-17.052-4.871-3.897-3.33-5.847-8.526-5.847-15.592h-2.435c0,7.876,2.111,13.643,6.332,17.296,4.304,3.654,10.637,5.479,19.001,5.479,2.68,0,5.359-0.323,8.038-0.974,2.762-0.566,5.199-1.541,7.31-2.922,2.19-1.378,3.937-3.167,5.237-5.357,1.379-2.192,2.07-4.874,2.07-8.039,0-3.005-0.61-5.441-1.827-7.309-1.138-1.868-2.68-3.41-4.63-4.627-1.868-1.221-4.019-2.152-6.455-2.804-2.355-0.729-4.75-1.419-7.187-2.07-3.41-0.892-6.415-1.663-9.013-2.313-2.518-0.648-4.872-1.42-7.063-2.314-2.111-0.894-3.817-2.151-5.117-3.776-1.217-1.704-1.828-4.099-1.828-7.185,0-0.568,0.162-1.584,0.487-3.047,0.326-1.46,1.097-2.923,2.314-4.383,1.219-1.543,3.086-2.883,5.603-4.02,2.517-1.218,5.967-1.827,10.354-1.827,3.004,0,5.724,0.325,8.159,0.975,2.519,0.649,4.671,1.704,6.457,3.167,1.786,1.38,3.167,3.166,4.141,5.359,0.97,2.181,1.46,4.861,1.46,8.026"/>
	<path d="M266.65,94.081h-49.936c0.244-4.383,1.056-8.322,2.435-11.814,1.381-3.491,3.167-6.454,5.361-8.891,2.272-2.517,4.87-4.425,7.794-5.724,3.005-1.3,6.213-1.95,9.624-1.95,4.059,0,7.631,0.771,10.717,2.313,3.086,1.463,5.644,3.493,7.674,6.09,2.11,2.599,3.693,5.644,4.749,9.135,1.07,3.411,1.6,7.027,1.6,10.841m-50.47,2.437h52.374c0.162-4.304-0.285-8.445-1.341-12.424-0.973-3.979-2.598-7.511-4.871-10.595-2.193-3.088-5.076-5.563-8.648-7.431-3.492-1.868-7.673-2.8-12.545-2.8-3.492,0-6.902,0.73-10.232,2.191-3.329,1.462-6.252,3.613-8.769,6.457-2.519,2.759-4.548,6.169-6.09,10.23-1.542,4.06-2.314,8.689-2.314,13.885,0,4.629,0.528,8.974,1.583,13.033,1.056,3.979,2.68,7.471,4.872,10.475,2.193,2.923,4.993,5.195,8.404,6.82,3.492,1.623,7.674,2.394,12.546,2.312,7.145,0,13.153-1.986,18.026-5.966,4.872-4.059,7.753-9.743,8.648-17.052h-2.437c-1.055,6.902-3.774,12.099-8.161,15.592-4.302,3.41-9.744,5.114-16.32,5.114-4.466,0-8.241-0.771-11.327-2.313-3.086-1.543-5.603-3.654-7.553-6.335-1.948-2.679-3.41-5.806-4.384-9.378-0.89-3.64-1.38-7.58-1.46-11.802z"/>
	<path d="M322.56,83.241h2.434c0-6.983-2.029-12.058-6.09-15.225-4.059-3.165-9.58-4.749-16.563-4.749-3.899,0-7.188,0.487-9.867,1.461-2.68,0.974-4.871,2.232-6.577,3.776-1.704,1.542-2.923,3.247-3.654,5.115-0.73,1.867-1.096,3.653-1.096,5.359,0,3.41,0.609,6.13,1.827,8.161,1.219,2.029,3.125,3.612,5.725,4.751,1.787,0.81,3.816,1.541,6.09,2.189,2.273,0.651,4.913,1.341,7.917,2.071,2.68,0.649,5.318,1.299,7.917,1.949,2.598,0.649,4.871,1.542,6.82,2.68,2.03,1.056,3.654,2.436,4.871,4.142,1.302,1.704,1.95,3.938,1.95,6.697,0,2.68-0.648,4.953-1.95,6.821-1.217,1.867-2.801,3.41-4.748,4.629-1.95,1.136-4.143,1.989-6.576,2.558-2.356,0.486-4.672,0.73-6.944,0.73-7.39,0-13.073-1.625-17.053-4.871-3.897-3.33-5.846-8.526-5.846-15.592h-2.435c0,7.876,2.111,13.643,6.333,17.296,4.304,3.654,10.638,5.479,19.001,5.479,2.68,0,5.359-0.323,8.038-0.974,2.762-0.566,5.197-1.541,7.31-2.922,2.19-1.378,3.938-3.167,5.237-5.357,1.379-2.192,2.069-4.874,2.069-8.039,0-3.005-0.608-5.441-1.827-7.309-1.137-1.868-2.679-3.41-4.628-4.627-1.868-1.221-4.019-2.152-6.455-2.804-2.355-0.729-4.751-1.419-7.187-2.07-3.411-0.892-6.414-1.663-9.013-2.313-2.519-0.648-4.872-1.42-7.063-2.314-2.111-0.894-3.818-2.151-5.117-3.776-1.217-1.704-1.827-4.099-1.827-7.185,0-0.568,0.162-1.584,0.487-3.047,0.326-1.46,1.096-2.923,2.314-4.383,1.219-1.543,3.086-2.883,5.603-4.02,2.517-1.218,5.968-1.827,10.354-1.827,3.003,0,5.724,0.325,8.158,0.975,2.519,0.649,4.671,1.704,6.456,3.167,1.787,1.38,3.168,3.166,4.142,5.359,0.97,2.181,1.46,4.861,1.46,8.026"/>
	<path d="M390.12,106.02h-2.437c-0.245,3.166-1.016,6.007-2.315,8.523-1.299,2.438-3.005,4.549-5.115,6.335-2.03,1.786-4.385,3.167-7.064,4.141-2.679,0.894-5.562,1.34-8.648,1.34-4.141,0-7.794-0.771-10.961-2.313-3.166-1.625-5.807-3.777-7.917-6.454-2.112-2.681-3.736-5.767-4.871-9.259-1.056-3.491-1.584-7.145-1.584-10.961,0-3.654,0.447-7.349,1.341-11.084,0.974-3.818,2.476-7.228,4.507-10.231,2.111-3.085,4.871-5.563,8.281-7.43,3.492-1.948,7.715-2.923,12.667-2.923,2.599,0,5.074,0.365,7.43,1.096,2.354,0.73,4.465,1.868,6.332,3.41,1.869,1.463,3.452,3.329,4.751,5.604,1.299,2.19,2.194,4.83,2.68,7.917h2.438c-0.407-3.33-1.341-6.254-2.803-8.77-1.379-2.599-3.127-4.75-5.237-6.455-2.112-1.706-4.505-3.005-7.186-3.899-2.68-0.893-5.48-1.338-8.404-1.338-4.952,0-9.298,0.933-13.033,2.8-3.654,1.869-6.698,4.384-9.134,7.552-2.355,3.085-4.142,6.699-5.359,10.84-1.137,4.06-1.706,8.364-1.706,12.911,0,4.302,0.61,8.363,1.828,12.179,1.218,3.736,3.005,7.023,5.359,9.867,2.354,2.842,5.237,5.114,8.647,6.821,3.489,1.619,7.469,2.432,11.935,2.432,3.575,0,6.821-0.527,9.745-1.581,3.005-1.056,5.603-2.558,7.796-4.505,2.273-1.949,4.101-4.305,5.481-7.063,1.38-2.86,2.23-6.03,2.56-9.52"/>
	<path d="M397.71,96.03c0,4.304,0.607,8.446,1.826,12.423,1.218,3.899,3.004,7.349,5.358,10.354,2.438,3.006,5.4,5.399,8.892,7.188,3.492,1.784,7.512,2.676,12.058,2.676,4.629,0,8.688-0.892,12.181-2.676,3.491-1.788,6.414-4.182,8.771-7.188,2.435-3.005,4.262-6.454,5.48-10.354,1.218-3.977,1.826-8.119,1.826-12.423s-0.608-8.403-1.826-12.301c-1.219-3.979-3.046-7.472-5.48-10.474-2.356-3.005-5.279-5.401-8.771-7.188-3.492-1.868-7.511-2.8-12.059-2.8-4.63,0-8.688,0.933-12.18,2.8-3.491,1.787-6.454,4.182-8.892,7.188-2.354,3.002-4.141,6.495-5.358,10.474-1.23,3.901-1.83,8.001-1.83,12.304m2.43,0c0-3.896,0.528-7.674,1.584-11.327,1.138-3.653,2.803-6.86,4.994-9.621,2.193-2.844,4.873-5.116,8.04-6.821,3.247-1.706,6.981-2.559,11.204-2.559,4.142,0,7.795,0.853,10.962,2.559,3.249,1.705,5.968,3.977,8.161,6.821,2.193,2.761,3.815,5.968,4.87,9.621,1.139,3.653,1.706,7.431,1.706,11.327,0,3.979-0.567,7.796-1.706,11.45-1.055,3.653-2.677,6.901-4.87,9.744-2.193,2.759-4.912,4.993-8.161,6.697-3.167,1.624-6.82,2.437-10.962,2.437-4.223,0-7.957-0.813-11.204-2.437-3.167-1.704-5.847-3.938-8.04-6.697-2.191-2.843-3.856-6.091-4.994-9.744-1.05-3.65-1.58-7.47-1.58-11.45z"/>
	<path d="M466.08,127.33v-35.437c0-3.41,0.486-6.741,1.461-9.988,0.973-3.249,2.478-6.09,4.507-8.527,2.028-2.516,4.586-4.466,7.673-5.847,3.167-1.46,6.901-2.07,11.206-1.827v-2.435c-3.735-0.082-7.023,0.324-9.865,1.218-2.763,0.894-5.158,2.111-7.188,3.654s-3.654,3.369-4.871,5.48c-1.218,2.03-2.11,4.223-2.68,6.578h-0.243v-15.469h-2.437v62.604h2.437"/>
	<path d="M547.01,94.081h-49.937c0.243-4.383,1.055-8.322,2.435-11.814,1.381-3.491,3.166-6.454,5.359-8.891,2.273-2.517,4.872-4.425,7.795-5.724,3.005-1.3,6.214-1.95,9.624-1.95,4.058,0,7.631,0.771,10.717,2.313,3.086,1.463,5.643,3.493,7.674,6.09,2.11,2.599,3.693,5.644,4.748,9.135,1.06,3.411,1.59,7.027,1.59,10.841m-49.93,2.437h52.372c0.162-4.304-0.284-8.445-1.34-12.424-0.974-3.979-2.598-7.511-4.871-10.595-2.192-3.088-5.076-5.563-8.647-7.431-3.492-1.868-7.674-2.8-12.546-2.8-3.491,0-6.901,0.73-10.231,2.191-3.329,1.462-6.252,3.613-8.769,6.457-2.519,2.759-4.549,6.169-6.09,10.23-1.543,4.06-2.314,8.689-2.314,13.885,0,4.629,0.527,8.974,1.583,13.033,1.056,3.979,2.681,7.471,4.871,10.475,2.193,2.923,4.993,5.195,8.405,6.82,3.492,1.623,7.674,2.394,12.545,2.312,7.146,0,13.154-1.986,18.026-5.966,4.871-4.059,7.754-9.743,8.648-17.052h-2.438c-1.055,6.902-3.773,12.099-8.161,15.592-4.302,3.41-9.743,5.114-16.321,5.114-4.465,0-8.239-0.771-11.325-2.313-3.086-1.543-5.604-3.654-7.553-6.335-1.948-2.679-3.41-5.806-4.384-9.378-0.91-3.64-1.39-7.58-1.47-11.802z"/>
	<path d="M119.24,46.768c0-1.541,1.248-2.789,2.789-2.789,1.54,0,2.789,1.248,2.789,2.789,0,1.54-1.249,2.789-2.789,2.789-1.55,0-2.79-1.249-2.79-2.789"/>
	<path d="M94.692,48.078h2.324c0-15.006,12.52-22.857,24.886-22.857,6.278,0,12.063,1.999,16.289,5.626,4.766,4.092,7.285,10.05,7.285,17.231h2.324c0-7.88-2.799-14.448-8.096-18.995-4.647-3.989-10.97-6.187-17.802-6.187-13.52,0-27.208,8.649-27.208,25.182z"/>
</svg>